<svg width="245" height="31" viewBox="0 0 245 31" fill="none" xmlns="http://www.w3.org/2000/svg">
<path d="M15.9307 11.3184L0.0726288 30.8472C0.0580667 30.8654 0.0799097 30.8871 0.0981123 30.8763L23.7688 15.8178C23.7797 15.8105 23.7797 15.7924 23.7688 15.7851L15.9562 11.3184C15.9489 11.3075 15.938 11.3111 15.9307 11.3184Z" fill="#005DB4"/>
<path d="M50.192 30.8472L25.1489 0.00816423C25.1416 -0.00272141 25.127 -0.00272141 25.1197 0.00816423L17.1397 9.83426C17.1324 9.84151 17.1361 9.85604 17.1434 9.86329L50.1665 30.8726C50.1847 30.8871 50.2029 30.8617 50.192 30.8472Z" fill="#4E81C7"/>
<path d="M25.2616 16.638C25.2543 16.6343 25.247 16.6343 25.2433 16.638L0 30.9381H50.1918C50.21 30.9381 50.2173 30.9127 50.2027 30.9018L25.2616 16.638Z" fill="#7397D2"/>
<path d="M54.1743 8.52832H64.4661V10.7925H60.7272V22.5127H57.9131V10.7925H54.1743V8.52832Z" fill="#6F6F6E"/>
<path d="M79.8653 22.6541C75.9044 22.6541 72.668 19.6896 72.668 15.4805C72.668 11.2931 75.9044 8.32861 79.8653 8.32861C83.8662 8.32861 87.0407 11.2931 87.0407 15.4805C87.0444 19.6896 83.848 22.6541 79.8653 22.6541ZM79.8653 20.1504C82.3991 20.1504 84.1465 18.3253 84.1465 15.4805C84.1465 12.6357 82.3991 10.8505 79.8653 10.8505C77.3133 10.8505 75.5622 12.6357 75.5622 15.4805C75.5622 18.3253 77.3133 20.1504 79.8653 20.1504Z" fill="#6F6F6E"/>
<path d="M100.435 8.52832C103.813 8.52832 105.502 10.4732 105.502 12.8173C105.502 14.5191 104.556 16.2426 102.306 16.8449L105.662 22.5164H102.404L99.3097 17.0663H97.9845V22.5164H95.1704V8.53195H100.435V8.52832ZM100.336 10.8506H97.9845V14.9581H100.336C101.905 14.9581 102.608 14.1381 102.608 12.8753C102.608 11.6344 101.902 10.8506 100.336 10.8506Z" fill="#6F6F6E"/>
<path d="M128.987 15.9633H121.367V22.5164H119.958V8.51025H121.367V14.8021H128.987V8.51025H130.396V22.5164H128.987V15.9633Z" fill="#6F6F6E"/>
<path d="M146.76 22.6543C142.821 22.6543 139.803 19.7079 139.803 15.5024C139.803 11.3151 142.817 8.35059 146.76 8.35059C150.721 8.35059 153.717 11.3151 153.717 15.5024C153.717 19.7079 150.721 22.6543 146.76 22.6543ZM146.76 21.4315C149.876 21.4315 152.268 19.1673 152.268 15.4988C152.268 11.8304 149.876 9.58792 146.76 9.58792C143.643 9.58792 141.252 11.8304 141.252 15.4988C141.252 19.1673 143.643 21.4315 146.76 21.4315Z" fill="#6F6F6E"/>
<path d="M164.533 8.51025V21.3734H169.579V22.5164H163.124V8.51025H164.533Z" fill="#6F6F6E"/>
<path d="M190.027 15.5424C190.027 19.8894 187.272 22.5164 182.59 22.5164H178.429V8.51025H182.59C187.275 8.51025 190.027 11.1555 190.027 15.5424ZM182.59 21.3517C186.569 21.3517 188.6 19.1491 188.6 15.5424C188.6 11.9138 186.569 9.67139 182.59 9.67139H179.834V21.3517H182.59Z" fill="#6F6F6E"/>
<path d="M199.46 8.51025H200.865V22.5164H199.457V8.51025H199.46Z" fill="#6F6F6E"/>
<path d="M221.493 8.51025V22.5164H220.084L212.304 10.7346V22.5164H210.895V8.51025H212.304L220.084 20.274V8.51025H221.493Z" fill="#6F6F6E"/>
<path d="M244.231 12.5958H242.582C241.799 10.7924 240.088 9.63127 237.839 9.63127C234.722 9.63127 232.33 11.8737 232.33 15.5023C232.33 19.1308 234.722 21.395 237.839 21.395C240.795 21.395 242.964 19.4102 243.187 16.2243H237.274V15.0814H244.672V16.1046C244.45 19.813 241.676 22.6577 237.835 22.6577C233.896 22.6577 230.878 19.7114 230.878 15.5059C230.878 11.3185 233.892 8.35403 237.835 8.35403C240.857 8.34677 243.227 9.93245 244.231 12.5958Z" fill="#6F6F6E"/>
</svg>
